<svg xmlns="http://www.w3.org/2000/svg" id="Layer_1" data-name="Layer 1" viewBox="0 0 49.8 49.9"><title>ContainerInstances_rgb_UI</title><path fill="#fff" d="M41.9,11.368A11.929,11.929,0,0,0,20.3,5.061a9.444,9.444,0,0,0-14.932,9.8A8.969,8.969,0,0,0,9.064,32H39.442A10.463,10.463,0,0,0,41.9,11.368Z" transform="translate(-0.1 -0.1)"/><path fill="#27a9e1" d="M41.9,11.368A11.929,11.929,0,0,0,20.3,5.061a9.444,9.444,0,0,0-14.932,9.8A8.969,8.969,0,0,0,9.064,32H39.442A10.463,10.463,0,0,0,41.9,11.368Z" opacity=".6" transform="translate(-0.1 -0.1)" style="isolation:isolate"/><path fill="#672a7a" d="M13,22a1,1,0,0,0-1,1V49a1,1,0,0,0,1,1H37a1,1,0,0,0,1-1V23a1,1,0,0,0-1-1Z" transform="translate(-0.1 -0.1)"/><path fill="none" d="M26.95,16" transform="translate(-0.1 -0.1)"/><path fill="none" d="M34.95,20" transform="translate(-0.1 -0.1)"/><polygon fill="#fff" points="22.9 21.9 22.9 14.9 19.9 14.9 24.9 7.9 29.9 14.9 26.9 14.9 26.9 21.9 22.9 21.9"/><path fill="#814a98" d="M26.95,16" transform="translate(-0.1 -0.1)"/><path fill="#b92025" d="M33,25H15V47H35V25ZM21,45H17V27h4Zm6,0H23V27h4Zm6,0H29V27h4Z" opacity=".3" transform="translate(-0.1 -0.1)" style="isolation:isolate"/><path fill="#fff" d="M33,25H15V47H35V25ZM21,45H17V27h4Zm6,0H23V27h4Zm6,0H29V27h4Z" transform="translate(-0.1 -0.1)" style="isolation:isolate"/></svg>