<svg xmlns="http://www.w3.org/2000/svg" xmlns:ev="http://www.w3.org/2001/xml-events" xmlns:xlink="http://www.w3.org/1999/xlink" width="1488.662" height="396.666" class="st11" color-interpolation-filters="sRGB" viewBox="0 0 1116.5 297.5" xml:space="preserve"><style type="text/css">.st1{fill:#f2f2f2;stroke:#2e75b5;stroke-width:.25}.st2{fill:#deebf6;stroke:#5b9bd5;stroke-width:1}.st3{fill:none}.st3,.st4{stroke:#5b9bd5;stroke-width:.75}.st5{fill:none;stroke:none;stroke-width:.25}.st6{fill:#4672c4;font-family:Calibri;font-size:1.00001em}.st7,.st8{fill:none;stroke:#5b9bd5;stroke-width:1}.st8{stroke-linecap:round;stroke-linejoin:round;stroke-width:1.5}.st9{fill:#4672c4;font-family:Calibri;font-size:.833336em}.st10{fill:#deebf6;stroke:#5b9bd5;stroke-dasharray:7,5;stroke-width:1}.st11{fill:none;fill-rule:evenodd;font-size:12px;overflow:visible;stroke-linecap:square;stroke-miterlimit:3}</style><g><title>Page-1</title><g id="shape1-1" transform="translate(18.2498,-18.25)"><title>Rounded Rectangle.396</title><path d="M13.05 297.5 L1066.95 297.5 A13.0518 13.0518 -180 0 0 1080 284.45 L1080 49.55 A13.0518 13.0518 -180 0 0 1066.95 36.5 L13.05 36.5 A13.0518 13.0518 -180 0 0 -0 49.55 L0 284.45 A13.0518 13.0518 -180 0 0 13.05 297.5 Z" class="st1"/></g><g id="shape2-3" transform="translate(35.1065,-103.75)"><title>Rounded Rectangle.397</title><path d="M12.63 297.5 L1032.51 297.5 A12.6305 12.6305 -180 0 0 1045.14 284.87 L1045.14 148.13 A12.6305 12.6305 -180 0 0 1032.51 135.5 L12.63 135.5 A12.6305 12.6305 -180 0 0 0 148.13 L0 284.87 A12.6305 12.6305 -180 0 0 12.63 297.5 Z" class="st1"/></g><g id="shape3-5" transform="translate(35.6781,-37.9422)"><title>Rounded Rectangle.398</title><path d="M12.63 297.5 L1032.51 297.5 A12.6305 12.6305 -180 0 0 1045.14 284.87 L1045.14 253.32 A12.6305 12.6305 -180 0 0 1032.51 240.69 L12.63 240.69 A12.6305 12.6305 -180 0 0 0 253.32 L0 284.87 A12.6305 12.6305 -180 0 0 12.63 297.5 Z" class="st1"/></g><g id="shape4-7" transform="translate(135.213,-124.846)"><title>Rectangle.399</title><rect width="922.537" height="56.808" x="0" y="240.692" class="st2"/></g><g id="group5-9" transform="translate(150.963,-133.846)"><title>Sheet.5</title><g id="shape6-10" transform="translate(9.89966,-10.331)"><title>Rounded Rectangle</title><path d="M1.84 297.5 L16.59 297.5 A1.84341 1.84341 -180 0 0 18.43 295.66 L18.43 281.51 A1.84341 1.84341 -180 0 0 16.59 279.67 L1.84 279.67 A1.84341 1.84341 -180 0 0 0 281.51 L0 295.66 A1.84341 1.84341 -180 0 0 1.84 297.5 Z" class="st3"/></g><g id="shape7-12" transform="translate(5.59158,-5.66082)"><title>Square</title><rect width="27.14" height="27.172" x="0" y="270.328" class="st3"/></g><g id="shape8-14" transform="translate(-287.259,264.667) rotate(-90)"><title>Multi-Line</title><path d="M0 297.5 L5.59 297.5" class="st4"/></g><g id="shape9-17" transform="translate(-269.166,264.667) rotate(-90)"><title>Multi-Line.169</title><path d="M0 297.5 L5.59 297.5" class="st4"/></g><g id="shape10-20" transform="translate(-278.338,264.667) rotate(-90)"><title>Multi-Line.170</title><path d="M0 297.5 L5.59 297.5" class="st4"/></g><g id="shape11-23" transform="translate(32.7318,-28.3041)"><title>Multi-Line.171</title><path d="M0 297.5 L5.59 297.5" class="st4"/></g><g id="shape12-26" transform="translate(32.7318,-19.2468)"><title>Multi-Line.172</title><path d="M0 297.5 L5.59 297.5" class="st4"/></g><g id="shape13-29" transform="translate(32.7318,-10.1898)"><title>Multi-Line.173</title><path d="M0 297.5 L5.59 297.5" class="st4"/></g><g id="shape14-32" transform="translate(-287.259,297.43) rotate(-90)"><title>Multi-Line.174</title><path d="M0 297.5 L5.59 297.5" class="st4"/></g><g id="shape15-35" transform="translate(-269.166,297.5) rotate(-90)"><title>Multi-Line.175</title><path d="M0 297.5 L5.59 297.5" class="st4"/></g><g id="shape16-38" transform="translate(-278.338,297.43) rotate(-90)"><title>Multi-Line.176</title><path d="M0 297.5 L5.59 297.5" class="st4"/></g><g id="shape17-41" transform="translate(0.0944336,-10.1895)"><title>Multi-Line.177</title><path d="M0 297.5 L5.59 297.5" class="st4"/></g><g id="shape18-44" transform="translate(-3.80196E-13,-19.2468)"><title>Multi-Line.178</title><path d="M0 297.5 L5.59 297.5" class="st4"/></g><g id="shape19-47" transform="translate(2.43305E-13,-28.3034)"><title>Multi-Line.179</title><path d="M0 297.5 L5.59 297.5" class="st4"/></g></g><g id="shape20-50" transform="translate(198.821,-143.058)"><title>Sheet.20</title><desc>Kernel</desc><rect width="85.427" height="20" x="0" y="277.5" class="st5"/><text x="4" y="291.1" class="st6">Kernel</text></g><g id="group21-53" transform="translate(51.9631,-58.75)"><title>Sheet.21</title><g id="shape22-54" transform="translate(0,5.8782)"><title>Round Corner Rectangle</title><path d="M0 297.5 L58.43 297.5 L58.43 268.7 L58.43 268.7 L0 268.7 L0 297.5 Z" class="st7"/></g><g id="shape23-56" transform="translate(5.31151,-2.9351)"><title>Round Corner Rectangle.194</title><path d="M2.12 297.5 L19.12 297.5 A2.12457 2.12457 -180 0 0 21.25 295.38 L21.25 291.33 A2.12457 2.12457 -180 0 0 19.12 289.21 L2.12 289.21 A2.12457 2.12457 -180 0 0 -0 291.33 L0 295.38 A2.12457 2.12457 -180 0 0 2.12 297.5 Z" class="st7"/></g><g id="shape24-58" transform="translate(34.574,-5.11479)"><title>Circle</title><path d="M0 295.53 A1.96723 1.96723 0 1 1 3.93 295.53 A1.96723 1.96723 0 0 1 0 295.53 Z" class="st7"/></g><g id="shape25-60" transform="translate(41.8528,-5.11479)"><title>Circle.196</title><path d="M0 295.53 A1.96723 1.96723 0 1 1 3.93 295.53 A1.96723 1.96723 0 0 1 0 295.53 Z" class="st7"/></g><g id="shape26-62" transform="translate(49.1315,-5.11479)"><title>Circle.198</title><path d="M0 295.53 A1.96723 1.96723 0 1 1 3.93 295.53 A1.96723 1.96723 0 0 1 0 295.53 Z" class="st7"/></g></g><g id="shape27-64" transform="translate(132.963,-58.75)"><title>Sheet.27</title><desc>Hardware</desc><rect width="108" height="20" x="0" y="277.5" class="st5"/><text x="4" y="291.1" class="st6">Hardware</text></g><g id="shape28-67" transform="translate(135.213,-191.5)"><title>Rectangle.423</title><rect width="139.5" height="56.808" x="0" y="240.692" class="st2"/></g><g id="shape29-69" transform="translate(205,-210.75)"><title>Sheet.29</title><desc>Apps</desc><rect width="58.427" height="20" x="0" y="277.5" class="st5"/><text x="4" y="291.1" class="st6">Apps</text></g><g id="group30-72" transform="translate(157.64,-207.226)"><title>Sheet.30</title><g id="shape31-73"><title>Rounded Rectangle.80</title><path d="M1.69 297.5 L38.88 297.5 A1.69053 1.69053 -180 0 0 40.57 295.81 L40.57 272.14 A1.69053 1.69053 -180 0 0 38.88 270.45 L1.69 270.45 A1.69053 1.69053 -180 0 0 0 272.14 L0 295.81 A1.69053 1.69053 -180 0 0 1.69 297.5 Z" class="st7"/></g><g id="shape32-75" transform="translate(0,-20.2867)"><title>Round Same Side Corner Rectangle</title><path d="M0 297.5 L40.57 297.5 L40.57 292.43 A1.69053 1.69053 -180 0 0 38.88 290.74 L1.69 290.74 A1.69053 1.69053 -180 0 0 0 292.43 L0 297.5 Z" class="st7"/></g><g id="shape33-77" transform="translate(32.1206,-22.8225)"><title>Circle</title><path d="M0 296.65 a0.845278 0.845278 0 0 1 1.69056 0 a0.845278 0.845278 0 1 1 -1.69056 0 Z" class="st7"/></g><g id="shape34-79" transform="translate(34.6564,-22.8225)"><title>Circle.83</title><path d="M0 296.65 a0.845278 0.845278 0 0 1 1.69056 0 a0.845278 0.845278 0 1 1 -1.69056 0 Z" class="st7"/></g><g id="shape35-81" transform="translate(37.1922,-22.8225)"><title>Circle.84</title><path d="M0 296.65 a0.845278 0.845278 0 0 1 1.69056 0 a0.845278 0.845278 0 1 1 -1.69056 0 Z" class="st7"/></g></g><g id="shape36-83" transform="translate(283.713,-191.5)"><title>Rectangle.431</title><rect width="142.857" height="56.808" x="0" y="240.692" class="st2"/></g><g id="shape37-85" transform="translate(341.143,-209.904)"><title>Sheet.37</title><desc>Services</desc><rect width="85.427" height="20" x="0" y="277.5" class="st5"/><text x="4" y="291.1" class="st6">Services</text></g><g id="group38-88" transform="translate(298.338,-204.733)"><title>Sheet.38</title><g id="shape39-89" transform="translate(-283.926,295.189) rotate(-90)"><title>Multi-Line</title><path d="M0 297.5 L12.36 297.5" class="st4"/></g><g id="shape40-92" transform="translate(28.9452,580.333) rotate(180)"><title>Multi-Line.209</title><path d="M0 297.5 L15.37 297.5" class="st4"/></g><g id="shape41-95" transform="translate(326.75,282.805) rotate(90)"><title>Multi-Line.210</title><path d="M0 297.5 L14.69 297.5" class="st4"/></g><g id="shape42-98" transform="translate(-14.1481,591.818) rotate(-171.612)"><title>Multi-Line.211</title><path d="M0 297.5 L15.85 297.5" class="st4"/></g><g id="shape43-101" transform="translate(-283.927,281.034) rotate(-89.8558)"><title>Multi-Line.212</title><path d="M0 297.5 L12.44 297.5" class="st4"/></g><g id="shape44-104" transform="translate(29.25,579.282) rotate(180)"><title>Multi-Line.213</title><path d="M0 297.5 L15.68 297.5" class="st4"/></g><g id="shape45-107" transform="translate(-268.25,281.782) rotate(-90)"><title>Multi-Line.214</title><path d="M0 297.5 L14.62 297.5" class="st4"/></g><g id="shape46-110" transform="translate(-27.474,-25.3118) rotate(-7.93646)"><title>Multi-Line.215</title><path d="M0 297.5 L15.8 297.5" class="st4"/></g><g id="shape47-113" transform="translate(12.6538,579.282) rotate(179.975)"><title>Multi-Line.216</title><path d="M0 297.5 L12.52 297.5" class="st4"/></g><g id="shape48-116" transform="translate(310.024,269.587) rotate(90)"><title>Multi-Line.217</title><path d="M0 297.5 L12.2 297.5" class="st4"/></g><g id="shape49-119" transform="translate(54.218,564.151) rotate(171.944)"><title>Multi-Line.218</title><path d="M0 297.5 L12.65 297.5" class="st4"/></g><g id="shape50-122" transform="translate(297.5,271.36) rotate(90)"><title>Multi-Line.219</title><path d="M0 297.5 L10.43 297.5" class="st4"/></g><g id="shape51-125" transform="translate(12.5237,580.305) rotate(180)"><title>Multi-Line.220</title><path d="M0 297.5 L12.52 297.5" class="st4"/></g><g id="shape52-128" transform="translate(310.024,282.87) rotate(90.0124)"><title>Multi-Line.221</title><path d="M0 297.5 L12.3 297.5" class="st4"/></g><g id="shape53-131" transform="translate(-30.5605,589.468) rotate(-171.674)"><title>Multi-Line.222</title><path d="M0 297.5 L12.65 297.5" class="st4"/></g><g id="shape54-134" transform="translate(297.5,282.805) rotate(90)"><title>Multi-Line.223</title><path d="M0 297.5 L10.47 297.5" class="st4"/></g></g><g id="group55-137" transform="translate(51.9631,-143.25)"><title>Sheet.55</title><g id="group56-138" transform="translate(8.92667,-29)"><title>Sheet.56</title><g id="group57-139" transform="translate(7.99361E-15,-20)"><title>Configure</title><g id="shape58-140"><title>Sheet.58</title><path d="M8.3 292.32 C6.69 292.32 5.37 291.05 5.37 289.5 C5.37 287.95 6.69 286.68 8.3 286.68 C9.91 286.68 11.23 287.95 11.23 289.5 C11.23 291.05 9.91 292.32 8.3 292.32 ZM14.89 287.74 C14.74 287.22 14.53 286.72 14.26 286.28 L14.87 284.51 L13.48 283.17 L11.64 283.76 C11.16 283.5 10.64 283.29 10.11 283.15 L9.28 281.5 L7.32 281.5 L6.47 283.15 C5.93 283.29 5.42 283.5 4.96 283.76 L3.12 283.17 L1.73 284.51 L2.34 286.28 C2.08 286.75 1.86 287.24 1.71 287.76 L0 288.56 L0 290.44 L1.71 291.26 C1.86 291.78 2.08 292.28 2.34 292.72 L1.73 294.49 L3.12 295.83 L4.96 295.24 C5.44 295.5 5.96 295.71 6.49 295.85 L7.35 297.5 L9.3 297.5 L10.16 295.85 C10.69 295.71 11.21 295.5 11.67 295.24 L13.5 295.83 L14.89 294.49 L14.28 292.72 C14.55 292.25 14.77 291.76 14.92 291.24 L16.62 290.42 L16.62 288.54 L14.89 287.74 Z" class="st8"/></g></g><g id="group59-142" transform="translate(12.4685,5.68434E-14)"><title>Configure.140</title><g id="shape60-143"><title>Sheet.60</title><path d="M14.03 288.75 C11.31 288.75 9.08 286.6 9.08 283.98 C9.08 281.35 11.31 279.2 14.03 279.2 C16.76 279.2 18.98 281.35 18.98 283.98 C18.98 286.6 16.76 288.75 14.03 288.75 ZM25.17 280.99 C24.93 280.12 24.56 279.28 24.1 278.53 L25.13 275.54 L22.78 273.28 L19.69 274.27 C18.86 273.83 17.99 273.47 17.09 273.24 L15.68 270.45 L12.38 270.45 L10.94 273.24 C10.03 273.47 9.16 273.83 8.38 274.27 L5.28 273.28 L2.93 275.54 L3.96 278.53 C3.51 279.32 3.14 280.16 2.89 281.03 L0 282.38 L0 285.57 L2.89 286.96 C3.14 287.83 3.51 288.67 3.96 289.43 L2.93 292.41 L5.28 294.68 L8.38 293.68 C9.2 294.12 10.07 294.48 10.98 294.72 L12.42 297.5 L15.72 297.5 L17.17 294.72 C18.08 294.48 18.94 294.12 19.73 293.68 L22.82 294.68 L25.17 292.41 L24.14 289.43 C24.6 288.63 24.97 287.79 25.22 286.92 L28.1 285.53 L28.1 282.34 L25.17 280.99 Z" class="st8"/></g></g></g><g id="shape61-145"><title>Sheet.61</title><desc>OS</desc><rect width="58.427" height="20" x="0" y="277.5" class="st5"/><text x="22.48" y="291.1" class="st6">OS</text></g></g><g id="group62-148" transform="translate(436.75,-187)"><title>Sheet.62</title><g id="shape63-149" transform="translate(22.5,-62.8257)"><title>Round Corner Rectangle.457</title><desc>Container</desc><path d="M0 297.5 L108 297.5 L108 279.33 A4.49993 4.49993 -180 0 0 103.5 274.83 L4.5 274.83 A4.49993 4.49993 -180 0 0 0 279.33 L0 297.5 Z" class="st2"/><text x="33.99" y="289.16" class="st9">Container</text></g><g id="shape64-152"><title>Rounded Rectangle.458</title><path d="M4.5 297.5 L306 297.5 A4.49993 4.49993 -180 0 0 310.5 293 L310.5 237 A4.49993 4.49993 -180 0 0 306 232.5 L4.5 232.5 A4.49993 4.49993 -180 0 0 0 237 L0 293 A4.49993 4.49993 -180 0 0 4.5 297.5 Z" class="st10"/></g><g id="shape65-154" transform="translate(10.1067,-4.50001)"><title>Rectangle.459</title><rect width="139.5" height="56.808" x="0" y="240.692" class="st2"/></g><g id="shape66-156" transform="translate(79.8933,-23.75)"><title>Sheet.66</title><desc>Apps</desc><rect width="58.427" height="20" x="0" y="277.5" class="st5"/><text x="4" y="291.1" class="st6">Apps</text></g><g id="group67-159" transform="translate(32.5333,-20.2256)"><title>Sheet.67</title><g id="shape68-160"><title>Rounded Rectangle.80</title><path d="M1.69 297.5 L38.88 297.5 A1.69053 1.69053 -180 0 0 40.57 295.81 L40.57 272.14 A1.69053 1.69053 -180 0 0 38.88 270.45 L1.69 270.45 A1.69053 1.69053 -180 0 0 0 272.14 L0 295.81 A1.69053 1.69053 -180 0 0 1.69 297.5 Z" class="st7"/></g><g id="shape69-162" transform="translate(0,-20.2867)"><title>Round Same Side Corner Rectangle</title><path d="M0 297.5 L40.57 297.5 L40.57 292.43 A1.69053 1.69053 -180 0 0 38.88 290.74 L1.69 290.74 A1.69053 1.69053 -180 0 0 0 292.43 L0 297.5 Z" class="st7"/></g><g id="shape70-164" transform="translate(32.1206,-22.8225)"><title>Circle</title><path d="M0 296.65 a0.845278 0.845278 0 0 1 1.69056 0 a0.845278 0.845278 0 1 1 -1.69056 0 Z" class="st7"/></g><g id="shape71-166" transform="translate(34.6564,-22.8225)"><title>Circle.83</title><path d="M0 296.65 a0.845278 0.845278 0 0 1 1.69056 0 a0.845278 0.845278 0 1 1 -1.69056 0 Z" class="st7"/></g><g id="shape72-168" transform="translate(37.1922,-22.8225)"><title>Circle.84</title><path d="M0 296.65 a0.845278 0.845278 0 0 1 1.69056 0 a0.845278 0.845278 0 1 1 -1.69056 0 Z" class="st7"/></g></g><g id="shape73-170" transform="translate(158.607,-4.50001)"><title>Rectangle.467</title><rect width="142.857" height="56.808" x="0" y="240.692" class="st2"/></g><g id="shape74-172" transform="translate(216.037,-22.9039)"><title>Sheet.74</title><desc>Services</desc><rect width="85.427" height="20" x="0" y="277.5" class="st5"/><text x="4" y="291.1" class="st6">Services</text></g><g id="group75-175" transform="translate(173.232,-17.7326)"><title>Sheet.75</title><g id="shape76-176" transform="translate(-283.926,295.189) rotate(-90)"><title>Multi-Line</title><path d="M0 297.5 L12.36 297.5" class="st4"/></g><g id="shape77-179" transform="translate(28.9452,580.333) rotate(180)"><title>Multi-Line.209</title><path d="M0 297.5 L15.37 297.5" class="st4"/></g><g id="shape78-182" transform="translate(326.75,282.805) rotate(90)"><title>Multi-Line.210</title><path d="M0 297.5 L14.69 297.5" class="st4"/></g><g id="shape79-185" transform="translate(-14.1481,591.818) rotate(-171.612)"><title>Multi-Line.211</title><path d="M0 297.5 L15.85 297.5" class="st4"/></g><g id="shape80-188" transform="translate(-283.927,281.034) rotate(-89.8558)"><title>Multi-Line.212</title><path d="M0 297.5 L12.44 297.5" class="st4"/></g><g id="shape81-191" transform="translate(29.25,579.282) rotate(180)"><title>Multi-Line.213</title><path d="M0 297.5 L15.68 297.5" class="st4"/></g><g id="shape82-194" transform="translate(-268.25,281.782) rotate(-90)"><title>Multi-Line.214</title><path d="M0 297.5 L14.62 297.5" class="st4"/></g><g id="shape83-197" transform="translate(-27.474,-25.3118) rotate(-7.93646)"><title>Multi-Line.215</title><path d="M0 297.5 L15.8 297.5" class="st4"/></g><g id="shape84-200" transform="translate(12.6538,579.282) rotate(179.975)"><title>Multi-Line.216</title><path d="M0 297.5 L12.52 297.5" class="st4"/></g><g id="shape85-203" transform="translate(310.024,269.587) rotate(90)"><title>Multi-Line.217</title><path d="M0 297.5 L12.2 297.5" class="st4"/></g><g id="shape86-206" transform="translate(54.218,564.151) rotate(171.944)"><title>Multi-Line.218</title><path d="M0 297.5 L12.65 297.5" class="st4"/></g><g id="shape87-209" transform="translate(297.5,271.36) rotate(90)"><title>Multi-Line.219</title><path d="M0 297.5 L10.43 297.5" class="st4"/></g><g id="shape88-212" transform="translate(12.5237,580.305) rotate(180)"><title>Multi-Line.220</title><path d="M0 297.5 L12.52 297.5" class="st4"/></g><g id="shape89-215" transform="translate(310.024,282.87) rotate(90.0124)"><title>Multi-Line.221</title><path d="M0 297.5 L12.3 297.5" class="st4"/></g><g id="shape90-218" transform="translate(-30.5605,589.468) rotate(-171.674)"><title>Multi-Line.222</title><path d="M0 297.5 L12.65 297.5" class="st4"/></g><g id="shape91-221" transform="translate(297.5,282.805) rotate(90)"><title>Multi-Line.223</title><path d="M0 297.5 L10.47 297.5" class="st4"/></g></g></g><g id="group92-224" transform="translate(757.43,-187)"><title>Sheet.92</title><g id="shape93-225" transform="translate(22.5,-62.8257)"><title>Round Corner Rectangle.457</title><desc>Container</desc><path d="M0 297.5 L108 297.5 L108 279.33 A4.49993 4.49993 -180 0 0 103.5 274.83 L4.5 274.83 A4.49993 4.49993 -180 0 0 0 279.33 L0 297.5 Z" class="st2"/><text x="33.99" y="289.16" class="st9">Container</text></g><g id="shape94-228"><title>Rounded Rectangle.458</title><path d="M4.5 297.5 L306 297.5 A4.49993 4.49993 -180 0 0 310.5 293 L310.5 237 A4.49993 4.49993 -180 0 0 306 232.5 L4.5 232.5 A4.49993 4.49993 -180 0 0 0 237 L0 293 A4.49993 4.49993 -180 0 0 4.5 297.5 Z" class="st10"/></g><g id="shape95-230" transform="translate(10.1067,-4.50001)"><title>Rectangle.459</title><rect width="139.5" height="56.808" x="0" y="240.692" class="st2"/></g><g id="shape96-232" transform="translate(79.8933,-23.75)"><title>Sheet.96</title><desc>Apps</desc><rect width="58.427" height="20" x="0" y="277.5" class="st5"/><text x="4" y="291.1" class="st6">Apps</text></g><g id="group97-235" transform="translate(32.5333,-20.2256)"><title>Sheet.97</title><g id="shape98-236"><title>Rounded Rectangle.80</title><path d="M1.69 297.5 L38.88 297.5 A1.69053 1.69053 -180 0 0 40.57 295.81 L40.57 272.14 A1.69053 1.69053 -180 0 0 38.88 270.45 L1.69 270.45 A1.69053 1.69053 -180 0 0 0 272.14 L0 295.81 A1.69053 1.69053 -180 0 0 1.69 297.5 Z" class="st7"/></g><g id="shape99-238" transform="translate(0,-20.2867)"><title>Round Same Side Corner Rectangle</title><path d="M0 297.5 L40.57 297.5 L40.57 292.43 A1.69053 1.69053 -180 0 0 38.88 290.74 L1.69 290.74 A1.69053 1.69053 -180 0 0 0 292.43 L0 297.5 Z" class="st7"/></g><g id="shape100-240" transform="translate(32.1206,-22.8225)"><title>Circle</title><path d="M0 296.65 a0.845278 0.845278 0 0 1 1.69056 0 a0.845278 0.845278 0 1 1 -1.69056 0 Z" class="st7"/></g><g id="shape101-242" transform="translate(34.6564,-22.8225)"><title>Circle.83</title><path d="M0 296.65 a0.845278 0.845278 0 0 1 1.69056 0 a0.845278 0.845278 0 1 1 -1.69056 0 Z" class="st7"/></g><g id="shape102-244" transform="translate(37.1922,-22.8225)"><title>Circle.84</title><path d="M0 296.65 a0.845278 0.845278 0 0 1 1.69056 0 a0.845278 0.845278 0 1 1 -1.69056 0 Z" class="st7"/></g></g><g id="shape103-246" transform="translate(158.607,-4.50001)"><title>Rectangle.467</title><rect width="142.857" height="56.808" x="0" y="240.692" class="st2"/></g><g id="shape104-248" transform="translate(216.037,-22.9039)"><title>Sheet.104</title><desc>Services</desc><rect width="85.427" height="20" x="0" y="277.5" class="st5"/><text x="4" y="291.1" class="st6">Services</text></g><g id="group105-251" transform="translate(173.232,-17.7326)"><title>Sheet.105</title><g id="shape106-252" transform="translate(-283.926,295.189) rotate(-90)"><title>Multi-Line</title><path d="M0 297.5 L12.36 297.5" class="st4"/></g><g id="shape107-255" transform="translate(28.9452,580.333) rotate(180)"><title>Multi-Line.209</title><path d="M0 297.5 L15.37 297.5" class="st4"/></g><g id="shape108-258" transform="translate(326.75,282.805) rotate(90)"><title>Multi-Line.210</title><path d="M0 297.5 L14.69 297.5" class="st4"/></g><g id="shape109-261" transform="translate(-14.1481,591.818) rotate(-171.612)"><title>Multi-Line.211</title><path d="M0 297.5 L15.85 297.5" class="st4"/></g><g id="shape110-264" transform="translate(-283.927,281.034) rotate(-89.8558)"><title>Multi-Line.212</title><path d="M0 297.5 L12.44 297.5" class="st4"/></g><g id="shape111-267" transform="translate(29.25,579.282) rotate(180)"><title>Multi-Line.213</title><path d="M0 297.5 L15.68 297.5" class="st4"/></g><g id="shape112-270" transform="translate(-268.25,281.782) rotate(-90)"><title>Multi-Line.214</title><path d="M0 297.5 L14.62 297.5" class="st4"/></g><g id="shape113-273" transform="translate(-27.474,-25.3118) rotate(-7.93646)"><title>Multi-Line.215</title><path d="M0 297.5 L15.8 297.5" class="st4"/></g><g id="shape114-276" transform="translate(12.6538,579.282) rotate(179.975)"><title>Multi-Line.216</title><path d="M0 297.5 L12.52 297.5" class="st4"/></g><g id="shape115-279" transform="translate(310.024,269.587) rotate(90)"><title>Multi-Line.217</title><path d="M0 297.5 L12.2 297.5" class="st4"/></g><g id="shape116-282" transform="translate(54.218,564.151) rotate(171.944)"><title>Multi-Line.218</title><path d="M0 297.5 L12.65 297.5" class="st4"/></g><g id="shape117-285" transform="translate(297.5,271.36) rotate(90)"><title>Multi-Line.219</title><path d="M0 297.5 L10.43 297.5" class="st4"/></g><g id="shape118-288" transform="translate(12.5237,580.305) rotate(180)"><title>Multi-Line.220</title><path d="M0 297.5 L12.52 297.5" class="st4"/></g><g id="shape119-291" transform="translate(310.024,282.87) rotate(90.0124)"><title>Multi-Line.221</title><path d="M0 297.5 L12.3 297.5" class="st4"/></g><g id="shape120-294" transform="translate(-30.5605,589.468) rotate(-171.674)"><title>Multi-Line.222</title><path d="M0 297.5 L12.65 297.5" class="st4"/></g><g id="shape121-297" transform="translate(297.5,282.805) rotate(90)"><title>Multi-Line.223</title><path d="M0 297.5 L10.47 297.5" class="st4"/></g></g></g></g></svg>