<svg xmlns="http://www.w3.org/2000/svg" id="ICONS" viewBox="0 0 400 140"><defs><style>.cls-1,.cls-4,.cls-5,.cls-7{fill:none}.cls-1{stroke:#757575}.cls-1,.cls-4,.cls-7,.cls-8{stroke-miterlimit:10}.cls-2{fill:#757575}.cls-3{fill:#556a8a}.cls-4{stroke:#2bc7f4}.cls-4,.cls-7,.cls-8{stroke-width:2px}.cls-6{fill:#58595b}.cls-7{stroke:#556a8a}.cls-8{fill:#fff;stroke:#55d2f6}.cls-9{fill:#2bc7f4}</style></defs><title>virtualization-hyperv-api</title><g><g><g><polyline points="159.01 22.45 165.92 15.54 208.86 15.54 215.45 22.13" class="cls-1"/><line x1="175.5" x2="175.5" y1="21.29" y2="15.79" class="cls-1"/><line x1="168.5" x2="168.5" y1="21.29" y2="15.79" class="cls-1"/><line x1="182.5" x2="182.5" y1="21.25" y2="15.75" class="cls-1"/><line x1="196.5" x2="196.5" y1="21.25" y2="15.75" class="cls-1"/><line x1="189.5" x2="189.5" y1="21.25" y2="15.75" class="cls-1"/><line x1="203.5" x2="203.5" y1="21.25" y2="15.75" class="cls-1"/><polygon points="148.84 8.07 149.91 7.76 154.65 21.36 153.27 21.36 148.84 8.07" class="cls-2"/><line x1="148.5" x2="148.5" y1="8.5" y2="23" class="cls-1"/><path d="M150.06,8.07a.85.85,0,0,1-.92.76.72.72,0,0,1-.76-.76.72.72,0,0,1,.76-.76.85.85,0,0,1,.92.76" class="cls-2"/><polygon points="157 32 156.1 32 151.91 35.82 147.74 32 146.91 32 146.91 32.59 151.16 36.5 146.91 40.41 146.91 41 147.74 41 151.91 37.18 156.1 41 157 41 157 40.47 152.65 36.5 157 32.53 157 32" class="cls-2"/><rect width="1" height="95" x="146" y="31" class="cls-2"/><rect width="1" height="93" x="157" y="32" class="cls-2"/><g><line x1="147" x2="157" y1="42" y2="51" class="cls-1"/><line x1="157" x2="147" y1="42" y2="51" class="cls-1"/></g><g><line x1="157" x2="147" y1="61" y2="52" class="cls-1"/><line x1="157" x2="147" y1="52" y2="61" class="cls-1"/></g><g><line x1="147" x2="157" y1="62" y2="71" class="cls-1"/><line x1="157" x2="147" y1="62" y2="71" class="cls-1"/></g><g><line x1="147" x2="157" y1="72" y2="81" class="cls-1"/><line x1="157" x2="147" y1="72" y2="81" class="cls-1"/></g><g><line x1="147" x2="157" y1="82" y2="91" class="cls-1"/><line x1="157" x2="147" y1="82" y2="91" class="cls-1"/></g><g><line x1="147" x2="157" y1="92" y2="101" class="cls-1"/><line x1="157" x2="147" y1="92" y2="101" class="cls-1"/></g><g><line x1="147" x2="157" y1="102" y2="111" class="cls-1"/><line x1="157" x2="147" y1="102" y2="111" class="cls-1"/></g><polyline points="169 16 175.5 21 182.5 16 189.5 21 196.5 16 203.5 21 209 16" class="cls-1"/><rect width="101" height="1.96" x="130" y="21.02" class="cls-3"/><path d="M226.3,22.11a.71.71,0,0,0-.7.61V23H220.4v-.28a.7.7,0,0,0-1.4,0V27h8V22.72A.71.71,0,0,0,226.3,22.11Z" class="cls-3"/><polyline points="132.56 20.11 149.15 8.37 195.61 15.56" class="cls-1"/><rect width="6" height="11" x="128" y="19" class="cls-3"/><line x1="147" x2="157" y1="51.5" y2="51.5" class="cls-1"/><line x1="147" x2="157" y1="41.5" y2="41.5" class="cls-1"/><line x1="147" x2="157" y1="31.5" y2="31.5" class="cls-1"/><polygon points="159.44 22 145.09 22 145.09 32 159.44 32 162 27 159.44 22" class="cls-3"/><line x1="152" x2="152" y1="24" y2="30" class="cls-4"/><line x1="156" x2="156" y1="24" y2="30" class="cls-4"/><line x1="147" x2="157" y1="61.5" y2="61.5" class="cls-1"/><line x1="147" x2="157" y1="71.5" y2="71.5" class="cls-1"/><line x1="147" x2="157" y1="81.5" y2="81.5" class="cls-1"/><line x1="147" x2="157" y1="91.5" y2="91.5" class="cls-1"/><line x1="147" x2="157" y1="101.5" y2="101.5" class="cls-1"/><g><line x1="147" x2="157" y1="110.5" y2="119.5" class="cls-1"/><line x1="157" x2="147" y1="110.5" y2="119.5" class="cls-1"/></g><line x1="147" x2="157" y1="110.5" y2="110.5" class="cls-1"/><line x1="147" x2="157" y1="120.5" y2="120.5" class="cls-1"/></g><rect width="111" height="136" x="115" y="1" class="cls-5"/></g><polygon points="176 132 128 132 130.58 126 133.15 120 170.85 120 173.43 126 176 132" class="cls-3"/><polygon points="176 132 128 132 130.58 126 173.43 126 176 132" class="cls-6"/></g><line x1="223" x2="223" y1="25" y2="61" class="cls-7"/><g><path d="M276.11,83.58a16,16,0,0,0-2.87-4.81,22.17,22.17,0,0,0-6.1-5.39v-.53a17.9,17.9,0,0,0-17.88-17.66,17.58,17.58,0,0,0-9.49,2.65,23.93,23.93,0,0,0-19.2-9.71A23.55,23.55,0,0,0,197,71.3c0,.88.22,1.54.22,2.43-6.84,3.31-10.81,9-10.81,16.33,0,10.41,8.19,18.75,19,19.36,1,7.23,10.11,12.89,21.21,12.89,9.46,0,17.47-4.11,20.25-9.8a22.09,22.09,0,0,0,29.25-28.94Z" class="cls-8"/><g><polygon points="232.11 84.04 252 73.59 232.11 63.15 212.22 73.25 232.11 84.04" class="cls-9"/><g><polygon points="233 86.85 233 111 253 99.73 253 76.11 233 86.85" class="cls-9"/><polygon points="231 86.74 211 76 211 99.62 231 110.89 231 86.74" class="cls-9"/></g></g></g></svg>