<svg xmlns="http://www.w3.org/2000/svg" id="ICONS" viewBox="0 0 400 140"><defs><style>.cls-1{fill:#d1d3d4}.cls-2{fill:none}.cls-3{fill:#939598}.cls-4{fill:#2bc7f4}.cls-5{fill:#556a8a}</style></defs><title>virtualization-containers-about</title><path d="M244,73.32a35.38,35.38,0,0,0-69.94-1.12,24,24,0,0,0-38.72,12.36,20.9,20.9,0,0,0-5-.63,21.26,21.26,0,0,0,0,42.51H248.92C260.95,124,270,112.73,270,99.88A26.46,26.46,0,0,0,244,73.32Z" class="cls-1"/><g><rect width="128" height="123" x="137" y="15" class="cls-2"/><g><polygon points="216.78 62.23 217 62.07 217 38.98 197.92 50.74 216.78 62.23" class="cls-3"/><polygon points="195.5 74.99 214.81 63.11 194.76 50.88 175.45 62.66 195.5 74.99" class="cls-4"/><polygon points="195 76.55 175 64.37 175 87.46 195 99.64 195 76.55" class="cls-5"/><polygon points="173 63.26 152.22 50.57 152 50.61 152 73.61 173 86.35 173 63.26" class="cls-5"/><polygon points="154.14 49.55 173.73 61.6 193.03 49.82 173.89 38.14 154.14 49.55" class="cls-4"/><polygon points="195 124.96 195 101.75 175 89.57 175 113.52 195 124.96" class="cls-5"/><polygon points="219 88.46 219 112.48 240 100.52 240 75.73 219 88.46" class="cls-3"/><polygon points="173 88.46 152 75.73 152 100.52 173 112.48 173 88.46" class="cls-5"/><polygon points="197 76.55 197 99.64 217 87.46 217 64.37 197 76.55" class="cls-3"/><polygon points="217 89.57 197 101.75 197 124.96 217 113.52 217 89.57" class="cls-3"/></g></g><g><polygon points="255.25 34.73 274.56 22.85 254.51 10.61 235.2 22.4 255.25 34.73" class="cls-4"/><g><polygon points="254 35.91 234.2 23.73 234.2 46.82 254 59 254 35.91" class="cls-5"/><polygon points="256.2 35.91 256.2 59 276 46.82 276 23.73 256.2 35.91" class="cls-3"/></g></g><polygon points="196.2 49.6 215.51 37.72 195.46 25.48 176.15 37.27 196.2 49.6" class="cls-4"/><polygon points="219 62.33 219 86 238.31 74.12 219 62.33" class="cls-4"/><path d="M247.15,125V84.82a35.49,35.49,0,0,0-19.64,25.78,24.11,24.11,0,0,0-38.72,12.26A20.85,20.85,0,0,0,173.35,125Z" class="cls-1"/></svg>